<?xml version="1.0" encoding="UTF-8" standalone="no"?>
<!-- Created with Inkscape (http://www.inkscape.org/) -->

<svg
   xmlns:dc="http://purl.org/dc/elements/1.1/"
   xmlns:cc="http://creativecommons.org/ns#"
   xmlns:rdf="http://www.w3.org/1999/02/22-rdf-syntax-ns#"
   xmlns:svg="http://www.w3.org/2000/svg"
   xmlns="http://www.w3.org/2000/svg"
   xmlns:sodipodi="http://sodipodi.sourceforge.net/DTD/sodipodi-0.dtd"
   xmlns:inkscape="http://www.inkscape.org/namespaces/inkscape"
   width="140mm"
   height="23mm"
   viewBox="0 0 496.06283 81.496092"
   id="svg2"
   version="1.1"
   inkscape:version="0.91 r13725"
   sodipodi:docname="drawing.svg">
  <defs
     id="defs4">
    <clipPath
       id="clipPath3596"
       clipPathUnits="userSpaceOnUse">
      <path
         inkscape:connector-curvature="0"
         id="path3598"
         d="m 0,1080 1920,0 L 1920,0 0,0 0,1080 Z" />
    </clipPath>
    <clipPath
       id="clipPath3634"
       clipPathUnits="userSpaceOnUse">
      <path
         inkscape:connector-curvature="0"
         id="path3636"
         d="m 0,1080 1920,0 L 1920,0 0,0 0,1080 Z" />
    </clipPath>
    <clipPath
       id="clipPath3690"
       clipPathUnits="userSpaceOnUse">
      <path
         inkscape:connector-curvature="0"
         id="path3692"
         d="m 0,1080 1920,0 L 1920,0 0,0 0,1080 Z" />
    </clipPath>
  </defs>
  <sodipodi:namedview
     id="base"
     pagecolor="#ffffff"
     bordercolor="#666666"
     borderopacity="1.0"
     inkscape:pageopacity="0.0"
     inkscape:pageshadow="2"
     inkscape:zoom="0.98994949"
     inkscape:cx="-146.18066"
     inkscape:cy="82.078893"
     inkscape:document-units="px"
     inkscape:current-layer="g3632"
     showgrid="false"
     inkscape:window-width="1855"
     inkscape:window-height="1056"
     inkscape:window-x="65"
     inkscape:window-y="24"
     inkscape:window-maximized="1" />
  <metadata
     id="metadata7">
    <rdf:RDF>
      <cc:Work
         rdf:about="">
        <dc:format>image/svg+xml</dc:format>
        <dc:type
           rdf:resource="http://purl.org/dc/dcmitype/StillImage" />
        <dc:title></dc:title>
      </cc:Work>
    </rdf:RDF>
  </metadata>
  <g
     inkscape:label="Capa 1"
     inkscape:groupmode="layer"
     id="layer1"
     transform="translate(0,-970.86612)">
    <g
       transform="matrix(1.25,0,0,-1.25,148.03036,1702.4145)"
       inkscape:label="Regina(1)"
       id="g3562">
      <path
         inkscape:connector-curvature="0"
         id="path3564"
         style="fill:#000000;fill-opacity:1;fill-rule:nonzero;stroke:none"
         d="m 1538.7676,448.39976 -61.801,0 0,54.327 61.801,0 0,-54.327 z" />
      <path
         inkscape:connector-curvature="0"
         id="path3566"
         style="fill:#ffffff;fill-opacity:1;fill-rule:nonzero;stroke:none"
         d="m 1494.6236,465.71276 -8.829,0 0,-18.168 8.829,0 0,18.168 z" />
      <path
         inkscape:connector-curvature="0"
         id="path3568"
         style="fill:#ffffff;fill-opacity:1;fill-rule:nonzero;stroke:none"
         d="m 1494.6236,493.38376 -8.829,0 0,-9.084 8.829,0 0,9.084 z" />
      <path
         inkscape:connector-curvature="0"
         id="path3570"
         style="fill:#ffffff;fill-opacity:1;fill-rule:nonzero;stroke:none"
         d="m 1512.2816,465.71276 -8.829,0 0,-9.084 8.829,0 0,9.084 z" />
      <path
         inkscape:connector-curvature="0"
         id="path3572"
         style="fill:#ffffff;fill-opacity:1;fill-rule:nonzero;stroke:none"
         d="m 1529.9386,465.71276 -8.829,0 0,-9.084 8.829,0 0,9.084 z" />
      <path
         inkscape:connector-curvature="0"
         id="path3574"
         style="fill:#ffffff;fill-opacity:1;fill-rule:nonzero;stroke:none"
         d="m 1512.2816,493.38376 -8.829,0 0,-9.084 8.829,0 0,9.084 z" />
      <path
         inkscape:connector-curvature="0"
         id="path3576"
         style="fill:#ffffff;fill-opacity:1;fill-rule:nonzero;stroke:none"
         d="m 1529.9386,493.38376 -8.829,0 0,-9.084 8.829,0 0,9.084 z" />
      <path
         inkscape:connector-curvature="0"
         id="path3578"
         style="fill:#ffffff;fill-opacity:1;fill-rule:nonzero;stroke:none"
         d="m 1538.7676,474.14676 -61.801,0 0,1.621 61.801,0 0,-1.621 z" />
      <path
         inkscape:connector-curvature="0"
         id="path3580"
         style="fill:#ffffff;fill-opacity:1;fill-rule:nonzero;stroke:none"
         d="m 1538.7676,501.10576 -61.801,0 0,1.621 61.801,0 0,-1.621 z" />
      <path
         inkscape:connector-curvature="0"
         id="path3582"
         style="fill:#000000;fill-opacity:1;fill-rule:nonzero;stroke:none"
         d="m 1533.6656,611.12076 -61.801,0 0,62.784 61.801,0 0,-62.784 z" />
      <path
         inkscape:connector-curvature="0"
         id="path3584"
         style="fill:#ffffff;fill-opacity:1;fill-rule:nonzero;stroke:none"
         d="m 1533.6656,636.86776 -61.801,0 0,1.621 61.801,0 0,-1.621 z" />
      <path
         inkscape:connector-curvature="0"
         id="path3586"
         style="fill:#ffffff;fill-opacity:1;fill-rule:nonzero;stroke:none"
         d="m 1533.6656,663.82676 -61.801,0 0,1.621 61.801,0 0,-1.621 z" />
      <text
         id="text3588"
         style="font-variant:normal;font-weight:bold;font-stretch:normal;font-size:15.54510021px;font-family:'Gotham Bold';-inkscape-font-specification:GothamBold;writing-mode:lr-tb;fill:#000000;fill-opacity:1;fill-rule:nonzero;stroke:none"
         transform="scale(1,-1)"
         x="1475.5919"
         y="-502.70944">
        <tspan
           id="tspan3590"
           sodipodi:role="line"
           y="-502.70944"
           x="1475.5919 1486.8311 1497.2462 1509.4336 1514.6567 1526.9374">REGINA</tspan>
      </text>
      <g
         id="g3592"
         transform="translate(1246.1246,-1.6162446)">
        <g
           clip-path="url(#clipPath3596)"
           id="g3594">
          <g
             transform="translate(239.7972,652.4324)"
             id="g3600">
            <path
               inkscape:connector-curvature="0"
               id="path3602"
               style="fill:#ffffff;fill-opacity:1;fill-rule:nonzero;stroke:none"
               d="m 0,0 c 0.573,0 1.013,0.136 1.32,0.408 0.307,0.271 0.461,0.633 0.461,1.086 l 0,0.03 c 0,0.503 -0.161,0.88 -0.483,1.132 -0.322,0.251 -0.77,0.377 -1.343,0.377 l -2.309,0 L -2.354,0 0,0 Z m -4.678,5.131 4.829,0 C 1.489,5.131 2.515,4.773 3.229,4.059 3.833,3.456 4.135,2.651 4.135,1.645 l 0,-0.03 C 4.135,0.759 3.926,0.063 3.508,-0.475 3.091,-1.014 2.545,-1.409 1.871,-1.66 l 2.58,-3.772 -2.716,0 -2.263,3.38 -0.03,0 -1.796,0 0,-3.38 -2.324,0 0,10.563 z" />
          </g>
          <g
             transform="translate(253.1215,657.563)"
             id="g3604">
            <path
               inkscape:connector-curvature="0"
               id="path3606"
               style="fill:#ffffff;fill-opacity:1;fill-rule:nonzero;stroke:none"
               d="m 0,0 7.952,0 0,-2.067 -5.658,0 0,-2.143 4.979,0 0,-2.067 -4.979,0 0,-2.219 5.734,0 0,-2.067 -8.028,0 L 0,0 Z" />
          </g>
          <g
             transform="translate(274.5004,646.8189)"
             id="g3608">
            <path
               inkscape:connector-curvature="0"
               id="path3610"
               style="fill:#ffffff;fill-opacity:1;fill-rule:nonzero;stroke:none"
               d="m 0,0 c -0.825,0 -1.577,0.136 -2.256,0.407 -0.679,0.272 -1.263,0.649 -1.75,1.132 -0.488,0.483 -0.868,1.057 -1.14,1.72 -0.271,0.664 -0.407,1.389 -0.407,2.173 l 0,0.031 c 0,0.754 0.138,1.461 0.415,2.12 0.276,0.659 0.661,1.237 1.154,1.735 0.493,0.498 1.077,0.89 1.751,1.177 0.673,0.287 1.413,0.43 2.218,0.43 0.473,0 0.903,-0.033 1.29,-0.098 C 1.662,10.762 2.022,10.669 2.354,10.548 2.686,10.427 2.998,10.276 3.29,10.095 3.581,9.914 3.863,9.708 4.135,9.476 L 2.671,7.711 C 2.47,7.882 2.268,8.033 2.067,8.164 1.866,8.294 1.657,8.405 1.441,8.496 1.225,8.586 0.991,8.657 0.739,8.707 0.488,8.757 0.211,8.782 -0.091,8.782 -0.513,8.782 -0.908,8.694 -1.275,8.518 -1.642,8.341 -1.964,8.104 -2.241,7.807 -2.518,7.509 -2.734,7.161 -2.89,6.763 -3.046,6.365 -3.124,5.939 -3.124,5.485 l 0,-0.03 c 0,-0.484 0.078,-0.93 0.234,-1.338 0.156,-0.409 0.378,-0.764 0.664,-1.067 0.287,-0.302 0.624,-0.537 1.011,-0.703 0.387,-0.167 0.818,-0.249 1.29,-0.249 0.866,0 1.595,0.212 2.188,0.638 l 0,1.519 -2.338,0 0,2.007 4.587,0 0,-4.587 C 3.969,1.212 3.322,0.817 2.573,0.49 1.823,0.164 0.966,0 0,0" />
          </g>
          <path
             inkscape:connector-curvature="0"
             id="path3612"
             style="fill:#ffffff;fill-opacity:1;fill-rule:nonzero;stroke:none"
             d="m 237.963,629.974 2.324,0 0,-10.563 -2.324,0 0,10.563 z" />
          <g
             transform="translate(252.3138,629.974)"
             id="g3614">
            <path
               inkscape:connector-curvature="0"
               id="path3616"
               style="fill:#ffffff;fill-opacity:1;fill-rule:nonzero;stroke:none"
               d="m 0,0 2.143,0 4.949,-6.504 0,6.504 2.294,0 0,-10.563 -1.977,0 -5.115,6.715 0,-6.715 -2.294,0 L 0,0 Z" />
          </g>
          <g
             transform="translate(275.6713,623.8324)"
             id="g3618">
            <path
               inkscape:connector-curvature="0"
               id="path3620"
               style="fill:#ffffff;fill-opacity:1;fill-rule:nonzero;stroke:none"
               d="M 0,0 -1.403,3.425 -2.807,0 0,0 Z m -2.445,6.217 2.143,0 4.527,-10.638 -2.429,0 -0.966,2.369 -4.467,0 -0.965,-2.369 -2.37,0 4.527,10.638 z" />
          </g>
        </g>
      </g>
      <text
         id="text3622"
         style="font-variant:normal;font-weight:normal;font-stretch:normal;font-size:95.29660034px;font-family:'Chronicle Display Bold';-inkscape-font-specification:ChronicleDisplay-Bold;writing-mode:lr-tb;fill:#000000;fill-opacity:1;fill-rule:nonzero;stroke:none"
         transform="matrix(1,0,0,-1,1336.2676,801.9482)">
        <tspan
           id="tspan3624"
           sodipodi:role="line"
           y="0"
           x="0 71.948936 120.3596 167.91261 199.45578 257.77731">Regina</tspan>
      </text>
      <text
         id="text3626"
         style="font-variant:normal;font-weight:normal;font-stretch:normal;font-size:21.11420059px;font-family:'Brandon Grotesque Regular';-inkscape-font-specification:BrandonGrotesque-Regular;writing-mode:lr-tb;fill:#000000;fill-opacity:1;fill-rule:nonzero;stroke:none"
         transform="matrix(1,0,0,-1,1510.3306,773.3721)">
        <tspan
           id="tspan3628"
           sodipodi:role="line"
           y="0"
           x="0 17.3981 37.034306 47.887005 60.787781 69.275688 85.829224 94.317131 113.19323">CO-LIVING</tspan>
      </text>
      <g
         id="g3630"
         transform="translate(-224,475.42857)">
        <g
           clip-path="url(#clipPath3634)"
           id="g3632">
          <path
             inkscape:connector-curvature="0"
             id="path3638"
             style="fill:#ff9998;fill-opacity:1;fill-rule:nonzero;stroke:none"
             d="m 168.09668,45.787502 -61.801,0 0,62.783998 61.801,0 0,-62.783998 z" />
          <path
             inkscape:connector-curvature="0"
             id="path3640"
             style="fill:#ffffff;fill-opacity:1;fill-rule:nonzero;stroke:none"
             d="m 123.95268,63.099502 -8.829,0 0,-18.168 8.829,0 0,18.168 z" />
          <path
             inkscape:connector-curvature="0"
             id="path3642"
             style="fill:#ffffff;fill-opacity:1;fill-rule:nonzero;stroke:none"
             d="m 123.95268,90.771502 -8.829,0 0,-9.084 8.829,0 0,9.084 z" />
          <path
             inkscape:connector-curvature="0"
             id="path3644"
             style="fill:#ffffff;fill-opacity:1;fill-rule:nonzero;stroke:none"
             d="m 141.61068,63.099502 -8.829,0 0,-9.084 8.829,0 0,9.084 z" />
          <path
             inkscape:connector-curvature="0"
             id="path3646"
             style="fill:#ffffff;fill-opacity:1;fill-rule:nonzero;stroke:none"
             d="m 159.26768,63.099502 -8.829,0 0,-9.084 8.829,0 0,9.084 z" />
          <path
             inkscape:connector-curvature="0"
             id="path3648"
             style="fill:#ffffff;fill-opacity:1;fill-rule:nonzero;stroke:none"
             d="m 141.61068,90.771502 -8.829,0 0,-9.084 8.829,0 0,9.084 z" />
          <path
             inkscape:connector-curvature="0"
             id="path3650"
             style="fill:#ffffff;fill-opacity:1;fill-rule:nonzero;stroke:none"
             d="m 159.26768,90.771502 -8.829,0 0,-9.084 8.829,0 0,9.084 z" />
          <path
             inkscape:connector-curvature="0"
             id="path3652"
             style="fill:#ffffff;fill-opacity:1;fill-rule:nonzero;stroke:none"
             d="m 168.09668,71.534502 -61.801,0 0,1.621 61.801,0 0,-1.621 z" />
          <path
             inkscape:connector-curvature="0"
             id="path3654"
             style="fill:#ffffff;fill-opacity:1;fill-rule:nonzero;stroke:none"
             d="m 168.09668,98.492502 -61.801,0 0,1.620998 61.801,0 0,-1.620998 z" />
          <g
             transform="translate(228.97968,76.859502)"
             id="g3656">
            <path
               inkscape:connector-curvature="0"
               id="path3658"
               style="fill:#ff9998;fill-opacity:1;fill-rule:nonzero;stroke:none"
               d="m 0,0 c 2.585,0 4.569,0.612 5.953,1.837 1.383,1.225 2.075,2.857 2.075,4.898 l 0,0.137 c 0,2.267 -0.726,3.968 -2.177,5.102 -1.452,1.133 -3.47,1.701 -6.055,1.701 l -10.409,0 L -10.613,0 0,0 Z m -21.09,23.131 21.771,0 c 6.031,0 10.657,-1.61 13.879,-4.83 2.721,-2.721 4.082,-6.35 4.082,-10.885 l 0,-0.136 C 18.642,3.424 17.7,0.283 15.818,-2.143 13.936,-4.57 11.475,-6.351 8.437,-7.484 l 11.633,-17.008 -12.246,0 -10.205,15.24 -0.136,0 -8.096,0 0,-15.24 -10.477,0 0,47.623 z" />
          </g>
          <g
             transform="translate(261.15938,99.990902)"
             id="g3660">
            <path
               inkscape:connector-curvature="0"
               id="path3662"
               style="fill:#ff9998;fill-opacity:1;fill-rule:nonzero;stroke:none"
               d="m 0,0 35.854,0 0,-9.32 -25.513,0 0,-9.661 22.451,0 0,-9.321 -22.451,0 0,-10.001 25.853,0 0,-9.321 L 0,-47.624 0,0 Z" />
          </g>
          <g
             transform="translate(333.75118,51.550902)"
             id="g3664">
            <path
               inkscape:connector-curvature="0"
               id="path3666"
               style="fill:#ff9998;fill-opacity:1;fill-rule:nonzero;stroke:none"
               d="m 0,0 c -3.719,0 -7.109,0.612 -10.171,1.837 -3.061,1.225 -5.692,2.925 -7.892,5.102 -2.2,2.178 -3.912,4.763 -5.136,7.756 -1.225,2.994 -1.837,6.26 -1.837,9.797 l 0,0.136 c 0,3.402 0.622,6.588 1.87,9.559 1.248,2.97 2.982,5.579 5.205,7.824 2.222,2.245 4.853,4.014 7.892,5.306 3.038,1.293 6.372,1.939 10.001,1.939 2.131,0 4.07,-0.147 5.817,-0.442 1.746,-0.295 3.368,-0.714 4.864,-1.258 1.497,-0.545 2.903,-1.225 4.219,-2.041 1.314,-0.817 2.585,-1.747 3.81,-2.79 l -6.6,-7.96 c -0.908,0.771 -1.814,1.451 -2.721,2.041 -0.908,0.589 -1.849,1.089 -2.823,1.497 -0.977,0.408 -2.031,0.725 -3.164,0.952 -1.134,0.227 -2.381,0.341 -3.742,0.341 -1.905,0 -3.686,-0.399 -5.341,-1.194 -1.656,-0.795 -3.107,-1.863 -4.354,-3.205 -1.248,-1.342 -2.223,-2.909 -2.925,-4.705 -0.704,-1.796 -1.055,-3.717 -1.055,-5.762 l 0,-0.136 c 0,-2.182 0.351,-4.194 1.055,-6.034 0.702,-1.842 1.7,-3.445 2.993,-4.808 1.293,-1.363 2.812,-2.42 4.558,-3.17 1.746,-0.751 3.685,-1.125 5.817,-1.125 3.901,0 7.188,0.959 9.865,2.877 l 0,6.852 -10.545,0 0,9.048 20.682,0 0,-20.682 C 17.893,5.465 14.978,3.685 11.6,2.211 8.221,0.738 4.354,0 0,0" />
          </g>
          <path
             inkscape:connector-curvature="0"
             id="path3668"
             style="fill:#ff9998;fill-opacity:1;fill-rule:nonzero;stroke:none"
             d="m 368.72068,99.990502 10.478,0 0,-47.624 -10.478,0 0,47.624 z" />
          <g
             transform="translate(395.18568,99.990902)"
             id="g3670">
            <path
               inkscape:connector-curvature="0"
               id="path3672"
               style="fill:#ff9998;fill-opacity:1;fill-rule:nonzero;stroke:none"
               d="m 0,0 9.661,0 22.315,-29.322 0,29.322 10.341,0 0,-47.624 -8.912,0 -23.064,30.275 0,-30.275 L 0,-47.624 0,0 Z" />
          </g>
          <g
             transform="translate(480.36348,72.301402)"
             id="g3674">
            <path
               inkscape:connector-curvature="0"
               id="path3676"
               style="fill:#ff9998;fill-opacity:1;fill-rule:nonzero;stroke:none"
               d="M 0,0 -6.327,15.443 -12.654,0 0,0 Z m -11.021,28.03 9.66,0 20.41,-47.964 -10.953,0 -4.354,10.681 -20.138,0 -4.354,-10.681 -10.682,0 20.411,47.964 z" />
          </g>
        </g>
      </g>
      <text
         id="text3678"
         style="font-variant:normal;font-weight:500;font-stretch:normal;font-size:23.67499924px;font-family:'Brandon Grotesque Medium';-inkscape-font-specification:BrandonGrotesque-Medium;writing-mode:lr-tb;fill:#000000;fill-opacity:1;fill-rule:nonzero;stroke:none"
         transform="matrix(1,0,0,-1,811.1494,761.3379)">
        <tspan
           id="tspan3680"
           sodipodi:role="line"
           y="0"
           x="0 16.880276 36.388474 45.740101 58.027424 65.556076 81.749779 89.278427 108.10005">CO-LIVING</tspan>
      </text>
      <text
         id="text3682"
         style="font-variant:normal;font-weight:300;font-stretch:normal;font-size:69.37940216px;font-family:'Brandon Grotesque Light';-inkscape-font-specification:BrandonGrotesque-Light;writing-mode:lr-tb;fill:#000000;fill-opacity:1;fill-rule:nonzero;stroke:none"
         transform="matrix(1,0,0,-1,734.1143,801.9482)">
        <tspan
           id="tspan3684"
           sodipodi:role="line"
           y="0"
           x="0 49.259373 94.702881 150.41454 172.61595 230.27023">REGINA</tspan>
      </text>
      <g
         id="g3686">
        <g
           clip-path="url(#clipPath3690)"
           id="g3688">
          <g
             transform="translate(875.8229,574.4622)"
             id="g3694">
            <path
               inkscape:connector-curvature="0"
               id="path3696"
               style="fill:#000000;fill-opacity:1;fill-rule:nonzero;stroke:none"
               d="m 0,0 c 3.862,0 7.222,3.21 7.222,7.323 0,3.812 -3.36,7.072 -7.222,7.072 l -9.73,0 L -9.73,0 0,0 Z m -13.692,17.104 c 0,0.501 0.4,0.953 0.953,0.953 l 12.99,0 c 6.018,0 10.934,-4.716 10.934,-10.684 0,-4.615 -3.059,-8.477 -7.423,-10.232 l 6.871,-12.74 c 0.352,-0.652 0,-1.454 -0.853,-1.454 l -2.558,0 c -0.451,0 -0.701,0.251 -0.802,0.451 l -6.67,13.292 -9.58,0 0,-12.79 c 0,-0.502 -0.452,-0.953 -0.953,-0.953 l -1.956,0 c -0.553,0 -0.953,0.451 -0.953,0.953 l 0,33.204 z" />
          </g>
          <g
             transform="translate(836.004,574.9957)"
             id="g3698">
            <path
               inkscape:connector-curvature="0"
               id="path3700"
               style="fill:none;stroke:#000000;stroke-width:3.70900011;stroke-linecap:butt;stroke-linejoin:miter;stroke-miterlimit:10;stroke-dasharray:none;stroke-opacity:1"
               d="M 0,0 C 0,20.844 16.897,37.741 37.741,37.741 58.585,37.741 75.482,20.844 75.482,0 75.482,-20.844 58.585,-37.741 37.741,-37.741 16.897,-37.741 0,-20.844 0,0 Z" />
          </g>
        </g>
      </g>
    </g>
  </g>
</svg>
