<?xml version="1.0" encoding="utf-8"?>
<!-- Generator: Adobe Illustrator 22.1.0, SVG Export Plug-In . SVG Version: 6.00 Build 0)  -->
<svg version="1.1" id="Layer_1" xmlns="http://www.w3.org/2000/svg" xmlns:xlink="http://www.w3.org/1999/xlink" x="0px" y="0px"
	 viewBox="0 0 450 100" style="enable-background:new 0 0 450 100;" xml:space="preserve">
<g id="XMLID_33_">
	<g id="XMLID_3_">
		<g>
			<path id="XMLID_123_" d="M124.6,26.6h22.2c6.1,0,10.8,1.6,14.1,4.9c2.8,2.8,4.2,6.5,4.2,11.1v0.1c0,3.9-1,7.1-2.9,9.6
				s-4.4,4.3-7.5,5.4L166.5,75H154l-10.4-15.5h-0.1h-8.2V75h-10.7C124.6,75,124.6,26.6,124.6,26.6z M146,50.1c2.6,0,4.6-0.6,6.1-1.9
				c1.4-1.2,2.1-2.9,2.1-5v-0.1c0-2.3-0.7-4-2.2-5.2s-3.5-1.7-6.2-1.7h-10.6v13.9H146z"/>
			<path id="XMLID_121_" d="M178.8,26.6h36.5v9.5h-26v9.8h22.8v9.5h-22.8v10.2h26.3v9.5h-36.8V26.6z"/>
			<path id="XMLID_119_" d="M252.6,75.9c-3.8,0-7.2-0.6-10.3-1.9c-3.1-1.2-5.8-3-8-5.2s-4-4.8-5.2-7.9c-1.2-3-1.9-6.4-1.9-10v-0.1
				c0-3.5,0.6-6.7,1.9-9.7c1.3-3,3-5.7,5.3-8s4.9-4.1,8-5.4s6.5-2,10.2-2c2.2,0,4.1,0.2,5.9,0.4c1.8,0.3,3.4,0.7,4.9,1.3
				c1.5,0.6,3,1.2,4.3,2.1c1.3,0.8,2.6,1.8,3.9,2.8l-6.7,8.1c-0.9-0.8-1.8-1.5-2.8-2.1c-0.9-0.6-1.9-1.1-2.9-1.5s-2.1-0.7-3.2-1
				c-1.2-0.2-2.4-0.3-3.8-0.3c-1.9,0-3.8,0.4-5.4,1.2c-1.7,0.8-3.2,1.9-4.4,3.3c-1.3,1.4-2.3,3-3,4.8s-1.1,3.8-1.1,5.9v0.1
				c0,2.2,0.4,4.3,1.1,6.1c0.7,1.9,1.7,3.5,3,4.9s2.9,2.5,4.6,3.2c1.8,0.8,3.7,1.1,5.9,1.1c4,0,7.3-1,10-2.9v-7h-10.7V47h21v21
				c-2.5,2.1-5.5,3.9-8.9,5.4C261,75.1,257.1,75.9,252.6,75.9z"/>
			<path id="XMLID_117_" d="M288.2,26.6h10.7v48.5h-10.7V26.6z"/>
			<path id="XMLID_115_" d="M315.2,26.6h9.8l22.7,29.8V26.6h10.5v48.5h-9.1l-23.5-30.8v30.8h-10.5V26.6H315.2z"/>
			<path id="XMLID_112_" d="M390.6,26.3h9.8l20.8,48.8h-11.1l-4.4-10.9h-20.5l-4.4,10.9h-10.9L390.6,26.3z M401.8,54.8l-6.4-15.7
				L389,54.8H401.8z"/>
		</g>
	</g>
</g>
<g>
	<path d="M21.2,53.9h62.9V28.2H21.2V53.9z M66.1,36h9v9.2h-9V36z M48.1,36h9v9.2h-9V36z M39.2,36v9.2h-9V36H39.2z"/>
	<rect x="21.2" y="17.9" width="62.9" height="8.6"/>
	<path d="M21.2,55.6v26.2h9V64.2h9v17.6h44.9V55.6H21.2z M57.1,73.4h-9v-9.2h9V73.4z M75.1,73.4h-9v-9.2h9V73.4z"/>
</g>
</svg>
